<?xml version="1.0" encoding="UTF-8"?>
<svg id="_图层_2" data-name="图层 2" xmlns="http://www.w3.org/2000/svg" viewBox="0 0 1272.17 459.44">
  <defs>
    <style>
      @keyframes draw {
        0% {
          stroke-dashoffset: 4000px;
          stroke-dasharray: 0 4000px;
          opacity: 0;
        }
        10% {
          opacity: 1;
        }
        40% {
          stroke-dashoffset: 0;
          stroke-dasharray: 4000px 0;
        }
        85% {
          stroke-dashoffset: 0;
          stroke-dasharray: 4000px 0;
        }
        95%,
        100% {
          stroke-dashoffset: -4000px;
          stroke-dasharray: 0 4000px;
        }
      }
      @keyframes drawSmall {
        0% {
          stroke-dashoffset: 50px;
          stroke-dasharray: 0 50px;
          opacity: 0;
        }
        15% {
          opacity: 1;
        }
        45% {
          stroke-dashoffset: 0;
          stroke-dasharray: 50px 0;
        }
        85% {
          stroke-dashoffset: 0;
          stroke-dasharray: 50px 0;
        }
        95%,
        100% {
          stroke-dashoffset: -50px;
          stroke-dasharray: 0 50px;
        }
      }
      @media (prefers-reduced-motion) {
        .animated-path,
        .animated-path-small {
          animation: none !important;
          stroke-dasharray: unset !important;
          stroke-dashoffset: unset !important;
        }
      }
      @media print {
        .animated-path,
        .animated-path-small {
          animation: none !important;
          stroke-dasharray: unset !important;
          stroke-dashoffset: unset !important;
        }
      }
      .animated-path {
        stroke: #000000;
        stroke-width: 2;
        stroke-linecap: round;
        stroke-linejoin: round;
        fill: none;
        stroke-dasharray: 4000px;
        stroke-dashoffset: 4000px;
        animation: draw 15s ease-in-out infinite;
      }
      .animated-path-small {
        stroke: #000000;
        stroke-width: 20.13px;
        stroke-linecap: round;
        stroke-linejoin: round;
        fill: none;
        stroke-dasharray: 50px;
        stroke-dashoffset: 50px;
        animation: drawSmall 15s ease-in-out infinite;
        animation-delay: 0.5s;
      }
    </style>
  </defs>
  <g id="_图层_1-2" data-name="图层 1">
    <g>
      <path class="animated-path" d="M134.06,37.6c47.18,5.18,87.97-21.26,132.3-34.23,3.95-1.14,8-2.21,12.07-3.05,3.13-.67,6.86-.25,9.67,1.31,6.36,3.3,9.61,10.95,7.27,17.83,0,0-.28,.94-.28,.94l-.57,1.89c-31.74,107.23-76.01,210.77-130.6,308.32-18.87,32.15-41.06,63.17-68.33,88.96-17.53,16.36-39.41,38.88-64.94,39.85-6.28,.2-12.91-1.16-18.09-5.03-17.46-12.54-13.65-32.29-6.91-49.61,5.93-15.46,15.03-29.37,25.24-42.25,8.27-10.44,16.81-21.24,26.88-30.31,13.83-12.19,28.42-23.83,43.27-34.69,52.12-38.07,110.4-68.64,173.18-84.63,6.52-1.48,12.81-3.8,19.26-5.61,6.42-2.67,12.69,3.29,10.22,9.86-.73,2.04-2.7,3.44-3.96,4.7-3.72,3.56-7.23,7.32-10.72,11.02-11.87,12.26-24.87,23.95-32.72,39.24-3.04,6.23-5.76,13.95-4.44,20.73,.79,2.66,3.5,5.04,6.2,5.24,4.58-.28,9.23-2.45,13.36-4.81,6.33-3.66,12.05-8.33,17.38-13.43,13.71-12.78,22.26-27.73,20.33-46.1,.08,.24,.12,.2,.1,.09-.02-.16-.16-.46-.2-.64-.01-.05,0-.07,.12,0,.38,.15,.39-.1,.07-.33-.91-.77-3.58-.88-4.87-.61-.15,0-.26-.01-.36-.04-.03-.04-.08,.06-.13,.12-1.14,1.42-1.24,3.3-.62,5.57,1.34,4.39,5.16,7.59,8.56,10.47,11.31,9.23,26.87,10.68,40.67,7.48,18.91-3.83,63.42-27.21,67.6-46.74,.07-.37,.1-.79,.12-1.09,.01-.29,0-.46-.02-.51,0-.02,0-.01,0,.02-.4-.3-1.24-.72-2.13-.88-1.78-.42-4.53-.27-6.17,.56,0,0-1.41,.78-1.41,.78-.49,.26-.97,.54-1.45,.85-18.91,11.97-31.75,36.7-38.53,57.48-1.28,4.19-2.01,9.69-1.82,13.43,.55,1.65,2.01,3.28,3.19,4.5,0-.03,.04,.02-.15-.17-.14-.12-.36-.28-.42-.3-.07-.04-.06-.03-.02,0,3.24,1.4,8.42,1.6,12.06,1.12,9.55-1.83,18.75-4.98,27.65-8.92,18.7-8.31,34.88-21.3,51.23-33.42,33.65-24.17,62.62-53.98,89.16-85.73,6.7-7.92,13.16-16.07,19.57-24.25,12.19-16.04,22.78-34.19,30.82-52.69,1.96-4.64,3.74-9.35,4.95-13.94,.6-2.27,1.04-4.56,1.12-6.45,.05-.92-.04-1.75-.14-2.08-.04-.16-.08-.17,.02,0,.09,.16,.38,.49,.71,.66,0,0,2.05,.73,2.06,.73-2.95,.15-4.23,.11-6.2,1.89-1.71,1.51-4.39,4.82-7,7.8-15.54,18.14-31.17,36.25-45.17,55.62-32.28,44.72-59.48,93.8-72.07,147.62-1.6,5.77-2.04,13.16,.02,18.59,.7,1.72,1.58,3.6,3.46,3.95,1.39,.38,3.24,.85,4.58,1.05,.02,0,.11,.02,.04,0h-.06s-.03,0-.03,0h-.17c5.93-.32,16.92-2.25,23.91-5.14,6.81-2.58,13.42-6.15,19.99-10.27,6.58-4.09,13.07-8.73,19.83-13.16,1.64-1.09,3.85-.63,4.93,1.01,.88,1.34,.73,3.05-.24,4.22-5.22,6.27-10.83,12.23-17.1,17.8-13.74,12.61-32.32,21.39-51.21,22.53-2.52-.02-4.92-.58-7.25-1.09,0,0-1.68-.41-1.68-.41-4.05-.88-8.2-3.55-10.65-6.51-7.02-8.53-8.02-19.59-6.87-29.8,.95-6.32,2.76-12.6,4.34-18.77,14.54-51.33,43.34-97.66,74.56-140.18,14.52-19.53,29.31-38.83,45.53-56.96,4.83-5.46,10.38-12.2,18.48-12.78,3.09-.28,5.7,.2,7.99,.86l1.21,.35c1.82,.66,3.4,2.26,4.35,3.73,5.56,8.96-1.68,25.2-5.14,33.86-8.77,19.76-19.34,38.09-32.39,55.36-6.48,8.28-13.01,16.53-19.74,24.64-26.89,32.59-56.62,62.99-89.51,89.7-4.12,3.35-8.46,6.42-12.81,9.48-18.1,11.69-35.72,24.45-55.9,32.46-8.23,3.18-17.03,6.55-25.95,6.08-11.57-.55-19.11-3.38-22.39-15.29-.58-1.85-1.3-4.23-1.42-6.22-2.23-24.29,5.78-45.92,21.5-64.2,8.51-9.85,18.82-18.47,30.68-24.07,9.24-3.97,21.47-2.7,27.89,5.75,5.09,6.76,2.71,16.5-.96,23.11-9.47,16.63-28.94,28.73-45.56,37.07-10.04,4.79-20.37,9.16-31.65,10.58-21.45,2.84-43.58-7.03-56.84-23.86-6.07-8.03-7.2-19.62,2.75-25.06,8.15-4.73,19.07-2.88,23.67,6.1,1.81,3.16,2.14,7.49,2.37,11.16,1,15.22-6.78,29.86-16.74,40.68-12.06,13.2-32.72,32.29-51.19,33.83-7.04,.38-13.65-3.56-17.75-8.97-7.8-10.44-4.14-26.8,.44-37.76,7.89-17.66,21.67-33.34,36.68-44.86,4.92-3.59,10.05-6.8,15.11-10.08,.27-.17,.26-.21-.31,.37-2.07,2.3-1.64,5.99,1.1,7.56,.77,.53,2.51,.86,3.25,.61,0,0-1.92,.08-1.92,.08-7.7,.09-15.52,.72-22.98,2.77-72.68,18.03-145.43,64.25-200.4,114.47,0,0-5.64,5.32-5.64,5.32-.49,.45-.9,.87-1.31,1.3-4.81,4.93-9.02,10.29-13.19,15.89-7.46,10.2-14.66,20.79-20.59,31.93-5.43,10.8-14.46,31.76-11.47,42.9,.88,2.33,3.42,4.9,5.93,5.79,3.28,.76,6.6,.39,9.98-.5,13.31-4.08,23.98-13.64,34.79-23.25,14.99-13.63,29.54-28.21,42.23-44.12,24.16-29.9,43.36-63.88,60.81-98.17,10.61-20.84,21.01-41.86,30.78-63.09,29.41-63.49,54.45-128.96,74.33-196.04-.48,2.06,1.11,3.67,3.12,3.52,.11,0,.22-.02,.32-.03,.14-.02,.23-.05-.02,0-3.61,.74-7.15,1.65-10.74,2.67-25.04,7.22-48.44,18.61-73.53,26.51-20.74,6.7-43.36,10.02-65.24,7.77-10.98-1.4-9.85-17.49,1.6-16.93h0Z"/>
      <path class="animated-path" d="M799.58,35.39c9.23,34.41,8.49,69.97,11.2,104.92,1.71,20.45,4.81,40.82,8.08,61.09,3.3,20.06,6.67,40.38,11.4,60.09,.96,3.78,1.89,7.33,3.08,10.82-.07-.27-.27-.59-.42-.77-.26-.3-.34-.28-.17-.24,.16,.05,.5-.07,.74-.01,.14,.02,.31,.14,.42,.27-.02,.01,.07,0-.04,.04-.14,.06-.27,.13-.4,.21,0,0-.18,.12-.18,.12,0,0-.03,.04-.03,.04-.15,.16,.03,.14,.2,.13,.9-.21,2.38-.89,3.8-1.56,7.78-3.55,15.24-8.11,21.49-14.01,15.49-13.42,30.37-28.47,44.47-43.4,4.74-5.05,9.74-9.83,13.98-15.47,3.53-4.58,6.92-9.41,10.97-13.63,6.05-6.07,16.62-1.51,17.28,6.82,.61,4.91-3.06,8.23-5.52,11.93-5.57,8.04-10.29,16.77-14.44,25.55-2.75,5.85-5.12,11.8-7.32,17.71-2.18,5.9-4.05,11.94-4.6,17.83,0,0-.06,.55-.06,.55,0,0-.02,.23-.02,.23,.07-1.69-2.02-3.38-3.45-3.04,0,0,.11-.02,.11-.02,0,0,.25-.04,.25-.04,3.97-.76,7.85-1.83,11.83-2.8,11.01-3.82,20.78-10.11,30.7-16.36,5.76-3.67,11.72-7.22,17.45-11.07,13.29-8.94,27.53-23.03,39.77-33.41,11.01-9.88,23.76-18.42,38.26-22.84,3.73-1.16,7.53-2.09,11.38-2.93l1,21.33c-16.84-.84-33.96,7.66-46.12,19.24-11.25,10.82-18.74,24.91-22.11,39.93,0,0-.17,.74-.17,.74-.04,.17-.02,.11-.03,.17,0,.03-.02,.07-.02,.09-.03,.22,0,.24-.04,0-.04-.25-.21-.81-.66-1.41-.53-.72-1.88-1.67-2.53-1.38,.12,.23,.86,.03,1.08,.03,8.03-.94,17.38-3.64,24.9-7.64,8.15-4.24,15.73-10.15,22.77-16,3.76-3.06,7.41-6.06,10.65-9.16,6.49-6.17,11.18-13.06,14.62-21.32,0,0,18.34,10.94,18.33,10.95-4.67,8.24-10.04,15.49-11.46,23.99-.52,3.38,.45,7.54,1.7,11.08,0,0,.39,1.08,.39,1.08-.05-.12-.12-.24-.21-.35-.27-.46-.96-1.01-1.24-1.07-.31-.1-.27,.02-.18,.13,0,.04-.04,.05-.07,.06-.03,0,0,0,.05,0,10.29,.06,20.97-5.86,29.72-11.93,14.59-10.11,27.62-21.92,40.34-34.41,0,0,16.34-16.13,16.34-16.13,0,0,9.19,19.25,9.19,19.25-8.91,3.64-15.48,13.93-19.82,22.51-1.78,3.77-3.13,7.44-3.82,11.15-.48,3.14-.94,6.66-1,9.69-.06,5.31,.57,8.88,6.32,9.91,1.22,.43,4.66-.1,7.9-1.27,6.48-2.36,13.31-6.05,18.02-11.25,8.41-9.04,17.24-19.6,15.69-31.74-1.63-6.78-9.51-10.05-16.2-10.83,0,0,6.36-20.32,6.36-20.32,12.42,5.21,27.33,7.84,41.06,9.25,13.94,1.23,29.02,1.53,42.31-2.17,3.89-1.11,7.94,1.13,9.05,5.02,1.06,3.7-.95,7.55-4.49,8.88-8.07,3-16.08,4.42-24.05,5.35-15.94,1.71-31.74,1.35-47.62-.8-8.23-1.2-16.14-2.79-24.15-5.69-5.81-1.8-8.98-8.12-6.88-13.83,1.96-5.38,7.84-8.21,13.24-6.48,5.04,1.61,9.94,3.76,14.51,6.9,7.32,4.91,13.3,12.82,14.5,21.81,2.18,18.08-9.32,34.05-21,46.27-3.33,3.73-7.41,6.85-11.58,9.41-13.18,8.09-29.26,13.89-42.82,2.76-9.24-7.97-8.95-20.98-7.74-31.8,1.83-15.31,10.14-31.13,20.48-42.41,3.54-3.69,7.67-7.29,13.36-9.97,0,0,5.54-1.09,5.54-1.09,5.6-1.1,11.03,2.55,12.13,8.15,1.1,5.6-2.55,11.03-8.15,12.13-3.4,.49-6.77,1.39-9.97,2.71-9.68,3.87-18.3,9.82-26.45,16.34-7.83,6.37-16.3,14.21-23.71,21.25-10.15,9.79-21.57,20.05-36.44,21.29-5.31,.17-10.55-1.78-14.02-6.21-2.21-3.09-3.43-6.52-4.77-10.15-6.21-17.2,2.64-33.39,11.4-47.58,0,0,1.57-1.99,1.57-1.99,3.62-4.59,10.28-5.38,14.87-1.76,4.53,3.57,5.35,10.11,1.9,14.69-3.18,4.21-6.45,8.46-10.16,12.43-7.02,7.69-15.6,13.92-23.72,19.89-2.83,2.13-5.95,4.5-8.74,6.67-5.13,3.81-10.54,7.19-15.94,10.52-9.88,5.91-19.07,12.96-30.94,15.54-14.37,2.47-25.01-10.01-21.71-23.88,4.24-19.68,17.14-36.57,31.83-49.59,16.52-14.68,36.56-24.83,58.99-27.11,5.94-.69,11.31,3.57,12,9.51,.9,6.93-5.39,13.02-12.28,11.96-20.51-3.12-37.24,6.38-53.47,17.9-11.29,7.93-22.67,15.83-32.77,25.32-13.94,13.67-28.84,26.62-46.14,36.08-4.57,2.95-9.77,5.05-15.22,5.91-5.06,1.07-10.79-.84-14.05-5.02-2.53-3.11-3.45-6.99-3.17-10.87,.13-3.97,.58-7.81,1.17-11.59,3.65-24.2,17.63-45.18,33.87-62.81-3.06,4.01,1.02,9.63,5.76,7.63,.45-.19,.72-.41,1.03-.67,.05-.05,.12-.12,.04-.06l-.26,.16c-4.51,2.94-9.47,5.95-13.89,9.07-5.72,3.94-10.52,8.9-15.53,13.63-17.37,16.73-34.3,34.4-49.79,52.93-4.74,6.07-7.87,12.86-13.89,18.21-.56,.45-1.11,.89-2.04,1.43,0,0-.32,.19-.32,.19-.68,.35-1.41,.67-2.12,.95-8.1,3.16-17.55,.37-23.46-6.17-2.11-2.35-3.49-5.42-4.33-8.48-1.13-3.69-2.01-7.21-2.84-10.73-3.22-13.86-5.42-27.61-7.55-41.56-4.89-34.49-8.04-69.29-10.38-104.03-1.66-27.05-3.43-53.96-12.41-79.37-1.94-5.57,1.01-11.66,6.58-13.6,5.87-2.08,12.37,1.43,13.87,7.47h0Z"/>
      <path class="animated-path" d="M723.64,368.49c173.47-30.06,349.65-63.62,526.59-50.78,1.5,.11,2.62,1.42,2.51,2.91-.11,1.48-1.38,2.59-2.85,2.51-176.65-8.9-350.63,28.31-523.14,62.07-4.61,.91-9.08-2.09-9.99-6.7-.93-4.67,2.2-9.21,6.89-10.02h0Z"/>
      <path class="animated-path" d="M985.06,34.1c-62.92,56-125.15,112.82-185.73,171.32-39.65,38.57-79.79,79.78-118.15,119.64-6.43,6.77-12.93,13.46-19.94,19.67-4.16,3.75-10.59,3.39-14.3-.8-3.36-3.79-3.35-9.42-.17-13.18,6.05-7.2,12.61-13.92,19.24-20.56,45.8-45.8,95.61-91.33,142.88-135.5,54.64-51.23,109.49-102.22,162.37-155.24,3.92-3.95,10.3-3.97,14.24-.05,4.13,4.07,3.92,10.89-.44,14.7h0Z"/>
      <path class="animated-path-small" d="M964.55,129.84l-4.47,2.35"/>
    </g>
  </g>
</svg>

