<svg xmlns="http://www.w3.org/2000/svg" viewBox="0 11.149999618530273 187.14999389648438 49.5" data-asc="0.9" width="187.14999389648438" height="49.5"><defs/><g fill="#000000"><g transform="translate(0, 0)"><path d="M6.05 60.65Q3.20 60.65 1.60 59.15Q0 57.65 0 55.10Q0 53.50 0.68 51.58Q1.35 49.65 2.75 47.50Q4.30 45.10 6.50 42.90Q8.70 40.70 11.23 38.80Q13.75 36.90 16.20 35.50Q16.65 32.15 18.25 28.75Q19.85 25.35 22.28 22.22Q24.70 19.10 27.63 16.60Q30.55 14.10 33.60 12.55Q36.35 11.15 39.15 11.15Q41.80 11.15 43.80 12.55Q45.80 13.95 46.30 16.80Q46.35 17.05 46.38 17.35Q46.40 17.65 46.40 17.95Q46.40 20.55 45.00 24.02Q43.60 27.50 41.15 31.45Q38.70 35.40 35.48 39.42Q32.25 43.45 28.60 47.13Q24.95 50.80 21.18 53.75Q17.40 56.70 13.80 58.50Q11.55 59.60 9.60 60.13Q7.65 60.65 6.05 60.65M7.60 58.80Q8.65 58.80 9.88 58.52Q11.10 58.25 12.35 57.75Q15.55 56.40 19.05 53.77Q22.55 51.15 26.02 47.67Q29.50 44.20 32.58 40.33Q35.65 36.45 38.05 32.55Q40.45 28.65 41.83 25.15Q43.20 21.65 43.20 19Q43.20 16.55 42.00 15.02Q40.80 13.50 38.30 13.50Q36.65 13.50 34.40 14.25Q29.85 15.80 26.43 18.82Q23 21.85 20.90 25.88Q18.80 29.90 18.20 34.45Q20.55 33.30 22.98 32.63Q25.40 31.95 27.75 31.95Q28.05 31.95 28.38 31.95Q28.70 31.95 29 32Q30.35 32.10 31.30 32.67Q32.25 33.25 32.50 34.25Q32.60 34.45 32.60 34.58Q32.60 34.70 32.60 34.80Q32.60 34.95 32.50 34.95Q32.45 34.95 32.33 34.90Q32.20 34.85 32 34.80Q31.80 34.75 31.55 34.73Q31.30 34.70 31.05 34.70Q28.70 34.70 25.27 36.23Q21.85 37.75 18.35 40Q18.70 40.80 19.15 41.15Q19.60 41.50 20.10 41.55Q20.45 41.55 20.45 41.85Q20.45 42.10 19.90 42.10Q19.70 42.10 19.38 42.05Q19.05 42 18.60 41.90Q17.70 41.65 17.05 40.85Q14.00 42.90 11.05 45.25Q8.10 47.60 5.85 50.50Q4.60 52.15 4.03 53.45Q3.45 54.75 3.45 55.75Q3.45 57.30 4.63 58.05Q5.80 58.80 7.60 58.80ZM43.65 45.45Q41.70 45.45 40.73 44.48Q39.75 43.50 39.75 41.95Q39.75 41 40.00 40.10Q40.25 39.20 40.55 38.50Q40.20 38.85 39.88 39.13Q39.55 39.40 39.35 39.55Q39.15 39.70 39.00 39.70Q38.80 39.70 38.80 39.45Q38.80 39.10 39.30 38.65Q41.05 37.20 42.05 36.08Q43.05 34.95 44.15 34Q46.00 32.40 48.10 31.50Q50.20 30.60 52.30 30.60Q54.50 30.60 55.75 31.65Q57 32.70 57 34.75Q57 35.90 56.33 37.40Q55.65 38.90 54.20 40.50Q53.60 41.15 52.85 41.77Q52.10 42.40 51.55 42.70Q54.00 42.45 56.15 40.98Q58.30 39.50 60.00 38.05Q60.25 37.90 60.35 37.90Q60.60 37.90 60.60 38.15Q60.60 38.35 60.35 38.60Q58.20 40.65 55.73 42.05Q53.25 43.45 50.25 43.40Q48.50 44.35 46.83 44.90Q45.15 45.45 43.65 45.45M45.90 44.05Q46.60 44.05 47.40 43.80Q48.20 43.55 49.00 43.15Q48.70 43.15 48.43 42.85Q48.15 42.55 48.15 42.05Q48.15 41.05 48.90 40Q49.65 38.95 50.75 38.20Q51.85 37.45 52.90 37.45Q53.50 37.45 54.03 37.77Q54.55 38.10 54.60 38.65Q55.45 37.70 55.78 36.60Q56.10 35.50 56.10 34.55Q56.10 33.25 55.28 32.58Q54.45 31.90 53.05 31.90Q51.70 31.90 50.08 32.85Q48.45 33.80 47.03 35.30Q45.60 36.80 44.68 38.55Q43.75 40.30 43.75 41.90Q43.75 44.05 45.90 44.05ZM64.60 45.50Q62.40 45.50 60.93 44.42Q59.45 43.35 59.45 41.30Q59.45 39.10 60.50 37.20Q61.55 35.30 63.30 33.88Q65.05 32.45 67.13 31.65Q69.20 30.85 71.25 30.85Q73.30 30.85 74.30 31.57Q75.30 32.30 75.30 33.35Q75.30 34.35 74.38 35.48Q73.45 36.60 71.70 37.45Q70.60 37.95 69.18 38.33Q67.75 38.70 66.70 38.70Q65.90 38.70 65.90 38.45Q65.90 38.25 66.60 38.25Q67.25 38.25 68.63 37.88Q70 37.50 71.30 36.85Q72.75 36.05 73.35 35.25Q73.95 34.45 73.95 33.80Q73.95 33.20 73.48 32.80Q73 32.40 72.15 32.40Q71.35 32.40 70.35 32.85Q68.90 33.50 67.38 34.98Q65.85 36.45 64.85 38.20Q63.85 39.95 63.85 41.55Q63.85 42.65 64.48 43.40Q65.10 44.15 66.35 44.15Q67.65 44.15 69.35 43.33Q71.05 42.50 72.80 41.27Q74.55 40.05 76.05 38.80Q77.55 37.55 78.45 36.70Q78.75 36.40 78.90 36.40Q79.05 36.40 79.05 36.65Q79.05 37 78.75 37.25Q76.85 39 74.63 40.90Q72.40 42.80 69.88 44.13Q67.35 45.45 64.60 45.50ZM81.35 45.25Q79.35 45.25 78.55 44.27Q77.75 43.30 77.75 42Q77.75 40.75 78.22 39.35Q78.70 37.95 79.30 36.70Q78.65 37.40 78.05 37.98Q77.45 38.55 77.05 38.90Q76.85 39.05 76.65 39.05Q76.40 39.05 76.40 38.80Q76.40 38.55 76.70 38.35Q77.75 37.45 79.15 35.90Q80.55 34.35 81.75 32.75Q82.75 31.45 84.15 29.50Q85.55 27.55 87 25.38Q88.45 23.20 89.50 21.40Q89.65 21.10 89.83 20.65Q90 20.20 90 19.85Q90 19.35 89.60 19.35Q89.50 19.35 89.03 19.55Q88.55 19.75 88.10 19.95Q87.65 20.15 87.55 20.15Q87.15 20.15 87.60 19.70Q88.40 19.10 89.63 18.52Q90.85 17.95 92.15 17.55Q93.45 17.15 94.35 17.15Q96.45 17.15 96.45 18.50Q96.45 19.20 95.80 20.35Q95.25 21.25 94.20 22.47Q93.15 23.70 91.88 25.07Q90.60 26.45 89.40 27.77Q88.20 29.10 87.40 30.10Q87.20 30.35 86.42 31.40Q85.65 32.45 84.67 33.92Q83.70 35.40 82.72 37.02Q81.75 38.65 81.13 40.13Q80.50 41.60 80.50 42.60Q80.50 43.95 81.80 43.95Q82.65 43.95 83.95 43.45Q85.20 43 86.58 42.08Q87.95 41.15 89.28 40.10Q90.60 39.05 91.63 38.10Q92.65 37.15 93.15 36.65Q93.45 36.35 93.65 36.35Q93.85 36.35 93.85 36.60Q93.85 36.85 93.60 37.10Q92.80 37.95 91.42 39.30Q90.05 40.65 88.38 42.02Q86.70 43.40 84.90 44.33Q83.10 45.25 81.35 45.25ZM97.85 49.75Q97.70 49.75 97.70 49.55Q97.70 49.20 98.05 48.70Q100.30 45.65 103.75 41.45Q107.20 37.25 111.35 32.80Q110.40 30.30 109.95 27.68Q109.50 25.05 109.50 22.75Q109.50 20.95 109.78 19.47Q110.05 18 110.55 17.10Q110.80 16.65 111.55 16.20Q112.30 15.75 113.20 15.47Q114.10 15.20 114.70 15.20Q115.50 15.20 115.50 15.65Q115.50 15.85 115.25 16.25Q114.60 17.30 114.28 18.95Q113.95 20.60 113.95 22.60Q113.95 25.75 114.65 29.35Q118.20 25.75 122.03 22.50Q125.85 19.25 129.73 16.72Q133.60 14.20 137.38 12.77Q141.15 11.35 144.60 11.45Q144.80 11.45 144.78 11.65Q144.75 11.85 144.55 11.85Q142.45 11.80 139.58 13.02Q136.70 14.25 133.35 16.40Q130 18.55 126.45 21.40Q123.60 23.65 120.73 26.18Q117.85 28.70 115.10 31.35Q115.90 34.45 117.08 37.30Q118.25 40.15 119.63 42.15Q121.00 44.15 122.30 44.90Q123.45 45.50 124.65 45.50Q125.40 45.50 126.05 45.25Q126.70 45 127.10 44.50Q127.20 44.40 127.30 44.40Q127.40 44.40 127.48 44.52Q127.55 44.65 127.45 44.80Q126.70 45.75 125.80 45.98Q124.90 46.20 123.75 46.20Q121.55 46.20 119.38 44.58Q117.20 42.95 115.30 40.25Q113.40 37.55 112.00 34.40Q109.00 37.35 106.38 40.15Q103.75 42.95 101.78 45.25Q99.80 47.55 98.65 49.10Q98.20 49.75 97.85 49.75ZM139.95 29.70Q139.25 29.70 138.90 29.25Q138.55 28.80 138.55 28.30Q138.55 27.30 139.50 26.32Q140.45 25.35 141.50 25.35Q142.20 25.35 142.55 25.80Q142.90 26.25 142.90 26.75Q142.90 27.80 141.98 28.75Q141.05 29.70 139.95 29.70M132.30 45.05Q130.25 45.05 129.53 44.17Q128.80 43.30 128.80 42.20Q128.80 41.30 129.10 40.48Q129.40 39.65 129.60 39.30Q129.90 38.80 130.43 38.15Q130.95 37.50 131.60 36.75Q130.60 37.60 129.73 38.40Q128.85 39.20 128.30 39.60Q128.15 39.75 128 39.75Q127.80 39.75 127.80 39.50Q127.80 39.10 128.35 38.70Q129.65 37.60 130.88 36.30Q132.10 35 133.20 33.88Q134.30 32.75 135.15 32.30Q136.05 31.80 136.60 31.65Q137.15 31.50 137.50 31.50Q138.05 31.50 138.30 31.67Q138.55 31.85 138.40 32.05Q137.55 32.90 136.73 34.23Q135.90 35.55 135.20 37Q134.50 38.45 134.08 39.75Q133.65 41.05 133.65 41.95Q133.65 43.20 134.65 43.20Q135.60 43.20 137.13 42.33Q138.65 41.45 140.33 40.10Q142 38.75 143.45 37.45Q143.65 37.25 143.80 37.25Q144.05 37.25 144.08 37.50Q144.10 37.75 143.95 37.85Q142.30 39.40 140.23 41.08Q138.15 42.75 136.08 43.90Q134 45.05 132.30 45.05ZM145.30 45.05Q143.75 45.05 142.90 44.08Q142.05 43.10 142.05 41.55Q142.05 40.10 142.83 38.35Q143.60 36.60 145.30 34.80Q147.05 32.90 149.65 31.73Q152.25 30.55 154.60 30.55Q156.50 30.55 157.85 31.38Q159.20 32.20 159.65 33.45Q160.20 33.45 161.03 33.75Q161.85 34.05 161.85 34.85Q161.85 35.40 161.30 36.10Q160.95 36.60 160.08 37.60Q159.20 38.60 158.45 39.75Q157.85 40.65 157.50 41.42Q157.15 42.20 157.15 42.75Q157.15 43.50 157.90 43.50Q158.75 43.50 160.45 42.55Q162.30 41.50 164 40.15Q165.70 38.80 166.65 38Q166.90 37.80 167 37.80Q167.20 37.80 167.20 38.05Q167.20 38.35 166.95 38.60Q166.50 39 165.20 40.10Q163.90 41.20 162.23 42.40Q160.55 43.60 158.95 44.35Q158.15 44.70 157.48 44.88Q156.80 45.05 156.25 45.05Q154.90 45.05 154.20 44.27Q153.50 43.50 153.50 42.25Q153.50 41.75 153.65 41.20Q153.80 40.65 154 40.10L154.35 39.25Q153.05 40.85 151.75 41.92Q150.45 43 149.15 43.80Q148.05 44.45 147.08 44.75Q146.10 45.05 145.30 45.05M146.85 43.75Q147.75 43.75 149.45 42.67Q151.15 41.60 153.40 39.35Q153.70 39.05 154.53 38.27Q155.35 37.50 156.30 36.52Q157.25 35.55 157.93 34.58Q158.60 33.60 158.60 32.95Q158.60 32 156.95 32Q155.50 32 153.48 33.13Q151.45 34.25 149.60 36.45Q147.70 38.70 146.83 40.33Q145.95 41.95 145.95 42.80Q145.95 43.75 146.85 43.75ZM170.20 45.45Q168.25 45.45 167.28 44.48Q166.30 43.50 166.30 41.95Q166.30 41 166.55 40.10Q166.80 39.20 167.10 38.50Q166.75 38.85 166.43 39.13Q166.10 39.40 165.90 39.55Q165.70 39.70 165.55 39.70Q165.35 39.70 165.35 39.45Q165.35 39.10 165.85 38.65Q167.60 37.20 168.60 36.08Q169.60 34.95 170.70 34Q172.55 32.40 174.65 31.50Q176.75 30.60 178.85 30.60Q181.05 30.60 182.30 31.65Q183.55 32.70 183.55 34.75Q183.55 35.90 182.88 37.40Q182.20 38.90 180.75 40.50Q180.15 41.15 179.40 41.77Q178.65 42.40 178.10 42.70Q180.55 42.45 182.70 40.98Q184.85 39.50 186.55 38.05Q186.80 37.90 186.90 37.90Q187.15 37.90 187.15 38.15Q187.15 38.35 186.90 38.60Q184.75 40.65 182.28 42.05Q179.80 43.45 176.80 43.40Q175.05 44.35 173.38 44.90Q171.70 45.45 170.20 45.45M172.45 44.05Q173.15 44.05 173.95 43.80Q174.75 43.55 175.55 43.15Q175.25 43.15 174.98 42.85Q174.70 42.55 174.70 42.05Q174.70 41.05 175.45 40Q176.20 38.95 177.30 38.20Q178.40 37.45 179.45 37.45Q180.05 37.45 180.58 37.77Q181.10 38.10 181.15 38.65Q182.00 37.70 182.33 36.60Q182.65 35.50 182.65 34.55Q182.65 33.25 181.83 32.58Q181.00 31.90 179.60 31.90Q178.25 31.90 176.63 32.85Q175.00 33.80 173.58 35.30Q172.15 36.80 171.23 38.55Q170.30 40.30 170.30 41.90Q170.30 44.05 172.45 44.05Z"/></g></g></svg>