<svg xmlns="http://www.w3.org/2000/svg" viewBox="0 11.149999618530273 96.44999694824219 49.5" data-asc="0.9" width="96.44999694824219" height="49.5">
  <defs>
    <style>
      @keyframes draw {
        0% {
          stroke-dashoffset: 1500px;
          stroke-dasharray: 0 1500px;
          opacity: 0;
        }
        10% {
          opacity: 1;
        }
        40% {
          stroke-dashoffset: 0;
          stroke-dasharray: 1500px 0;
        }
        85% {
          stroke-dashoffset: 0;
          stroke-dasharray: 1500px 0;
        }
        95%,
        100% {
          stroke-dashoffset: -1500px;
          stroke-dasharray: 0 1500px;
        }
      }
      @media (prefers-reduced-motion) {
        .animated-path {
          animation: none !important;
          stroke-dasharray: unset !important;
          stroke-dashoffset: unset !important;
        }
      }
      @media print {
        .animated-path {
          animation: none !important;
          stroke-dasharray: unset !important;
          stroke-dashoffset: unset !important;
        }
      }
      .animated-path {
        stroke: #000000;
        stroke-width: 1;
        stroke-linecap: round;
        stroke-linejoin: round;
        fill: none;
        stroke-dasharray: 1500px;
        stroke-dashoffset: 1500px;
        animation: draw 10s ease-in-out infinite;
      }
    </style>
  </defs>
  <g>
    <g transform="translate(0, 0)">
      <path class="animated-path" d="M6.05 60.65Q3.20 60.65 1.60 59.15Q0 57.65 0 55.10Q0 53.50 0.68 51.58Q1.35 49.65 2.75 47.50Q4.30 45.10 6.50 42.90Q8.70 40.70 11.23 38.80Q13.75 36.90 16.20 35.50Q16.65 32.15 18.25 28.75Q19.85 25.35 22.28 22.22Q24.70 19.10 27.63 16.60Q30.55 14.10 33.60 12.55Q36.35 11.15 39.15 11.15Q41.80 11.15 43.80 12.55Q45.80 13.95 46.30 16.80Q46.35 17.05 46.38 17.35Q46.40 17.65 46.40 17.95Q46.40 20.55 45.00 24.02Q43.60 27.50 41.15 31.45Q38.70 35.40 35.48 39.42Q32.25 43.45 28.60 47.13Q24.95 50.80 21.18 53.75Q17.40 56.70 13.80 58.50Q11.55 59.60 9.60 60.13Q7.65 60.65 6.05 60.65M7.60 58.80Q8.65 58.80 9.88 58.52Q11.10 58.25 12.35 57.75Q15.55 56.40 19.05 53.77Q22.55 51.15 26.02 47.67Q29.50 44.20 32.58 40.33Q35.65 36.45 38.05 32.55Q40.45 28.65 41.83 25.15Q43.20 21.65 43.20 19Q43.20 16.55 42.00 15.02Q40.80 13.50 38.30 13.50Q36.65 13.50 34.40 14.25Q29.85 15.80 26.43 18.82Q23 21.85 20.90 25.88Q18.80 29.90 18.20 34.45Q20.55 33.30 22.98 32.63Q25.40 31.95 27.75 31.95Q28.05 31.95 28.38 31.95Q28.70 31.95 29 32Q30.35 32.10 31.30 32.67Q32.25 33.25 32.50 34.25Q32.60 34.45 32.60 34.58Q32.60 34.70 32.60 34.80Q32.60 34.95 32.50 34.95Q32.45 34.95 32.33 34.90Q32.20 34.85 32 34.80Q31.80 34.75 31.55 34.73Q31.30 34.70 31.05 34.70Q28.70 34.70 25.27 36.23Q21.85 37.75 18.35 40Q18.70 40.80 19.15 41.15Q19.60 41.50 20.10 41.55Q20.45 41.55 20.45 41.85Q20.45 42.10 19.90 42.10Q19.70 42.10 19.38 42.05Q19.05 42 18.60 41.90Q17.70 41.65 17.05 40.85Q14.00 42.90 11.05 45.25Q8.10 47.60 5.85 50.50Q4.60 52.15 4.03 53.45Q3.45 54.75 3.45 55.75Q3.45 57.30 4.63 58.05Q5.80 58.80 7.60 58.80ZM43.65 45.45Q41.70 45.45 40.73 44.48Q39.75 43.50 39.75 41.95Q39.75 41 40.00 40.10Q40.25 39.20 40.55 38.50Q40.20 38.85 39.88 39.13Q39.55 39.40 39.35 39.55Q39.15 39.70 39.00 39.70Q38.80 39.70 38.80 39.45Q38.80 39.10 39.30 38.65Q41.05 37.20 42.05 36.08Q43.05 34.95 44.15 34Q46.00 32.40 48.10 31.50Q50.20 30.60 52.30 30.60Q54.50 30.60 55.75 31.65Q57 32.70 57 34.75Q57 35.90 56.33 37.40Q55.65 38.90 54.20 40.50Q53.60 41.15 52.85 41.77Q52.10 42.40 51.55 42.70Q54.00 42.45 56.15 40.98Q58.30 39.50 60.00 38.05Q60.25 37.90 60.35 37.90Q60.60 37.90 60.60 38.15Q60.60 38.35 60.35 38.60Q58.20 40.65 55.73 42.05Q53.25 43.45 50.25 43.40Q48.50 44.35 46.83 44.90Q45.15 45.45 43.65 45.45M45.90 44.05Q46.60 44.05 47.40 43.80Q48.20 43.55 49.00 43.15Q48.70 43.15 48.43 42.85Q48.15 42.55 48.15 42.05Q48.15 41.05 48.90 40Q49.65 38.95 50.75 38.20Q51.85 37.45 52.90 37.45Q53.50 37.45 54.03 37.77Q54.55 38.10 54.60 38.65Q55.45 37.70 55.78 36.60Q56.10 35.50 56.10 34.55Q56.10 33.25 55.28 32.58Q54.45 31.90 53.05 31.90Q51.70 31.90 50.08 32.85Q48.45 33.80 47.03 35.30Q45.60 36.80 44.68 38.55Q43.75 40.30 43.75 41.90Q43.75 44.05 45.90 44.05ZM64.60 45.50Q62.40 45.50 60.93 44.42Q59.45 43.35 59.45 41.30Q59.45 39.10 60.50 37.20Q61.55 35.30 63.30 33.88Q65.05 32.45 67.13 31.65Q69.20 30.85 71.25 30.85Q73.30 30.85 74.30 31.57Q75.30 32.30 75.30 33.35Q75.30 34.35 74.38 35.48Q73.45 36.60 71.70 37.45Q70.60 37.95 69.18 38.33Q67.75 38.70 66.70 38.70Q65.90 38.70 65.90 38.45Q65.90 38.25 66.60 38.25Q67.25 38.25 68.63 37.88Q70 37.50 71.30 36.85Q72.75 36.05 73.35 35.25Q73.95 34.45 73.95 33.80Q73.95 33.20 73.48 32.80Q73 32.40 72.15 32.40Q71.35 32.40 70.35 32.85Q68.90 33.50 67.38 34.98Q65.85 36.45 64.85 38.20Q63.85 39.95 63.85 41.55Q63.85 42.65 64.48 43.40Q65.10 44.15 66.35 44.15Q67.65 44.15 69.35 43.33Q71.05 42.50 72.80 41.27Q74.55 40.05 76.05 38.80Q77.55 37.55 78.45 36.70Q78.75 36.40 78.90 36.40Q79.05 36.40 79.05 36.65Q79.05 37 78.75 37.25Q76.85 39 74.63 40.90Q72.40 42.80 69.88 44.13Q67.35 45.45 64.60 45.50ZM81.35 45.25Q79.35 45.25 78.55 44.27Q77.75 43.30 77.75 42Q77.75 40.75 78.22 39.35Q78.70 37.95 79.30 36.70Q78.65 37.40 78.05 37.98Q77.45 38.55 77.05 38.90Q76.85 39.05 76.65 39.05Q76.40 39.05 76.40 38.80Q76.40 38.55 76.70 38.35Q77.75 37.45 79.15 35.90Q80.55 34.35 81.75 32.75Q82.75 31.45 84.15 29.50Q85.55 27.55 87 25.38Q88.45 23.20 89.50 21.40Q89.65 21.10 89.83 20.65Q90 20.20 90 19.85Q90 19.35 89.60 19.35Q89.50 19.35 89.03 19.55Q88.55 19.75 88.10 19.95Q87.65 20.15 87.55 20.15Q87.15 20.15 87.60 19.70Q88.40 19.10 89.63 18.52Q90.85 17.95 92.15 17.55Q93.45 17.15 94.35 17.15Q96.45 17.15 96.45 18.50Q96.45 19.20 95.80 20.35Q95.25 21.25 94.20 22.47Q93.15 23.70 91.88 25.07Q90.60 26.45 89.40 27.77Q88.20 29.10 87.40 30.10Q87.20 30.35 86.42 31.40Q85.65 32.45 84.67 33.92Q83.70 35.40 82.72 37.02Q81.75 38.65 81.13 40.13Q80.50 41.60 80.50 42.60Q80.50 43.95 81.80 43.95Q82.65 43.95 83.95 43.45Q85.20 43 86.58 42.08Q87.95 41.15 89.28 40.10Q90.60 39.05 91.63 38.10Q92.65 37.15 93.15 36.65Q93.45 36.35 93.65 36.35Q93.85 36.35 93.85 36.60Q93.85 36.85 93.60 37.10Q92.80 37.95 91.42 39.30Q90.05 40.65 88.38 42.02Q86.70 43.40 84.90 44.33Q83.10 45.25 81.35 45.25Z"/>
    </g>
  </g>
</svg>

