<svg xmlns="http://www.w3.org/2000/svg" viewBox="0 9.850000381469727 81.6500015258789 35.400001525878906" data-asc="0.8" width="81.6500015258789" height="35.400001525878906"><defs/><g fill="#000000"><g transform="translate(0, 0)"><path d="M4.20 45.25Q2.30 45.25 1.15 44.17Q0 43.10 0 41.30Q0 40 0.73 38.35Q1.45 36.70 3.05 34.85Q6.45 30.90 10.63 28.45Q14.80 26 19.65 24.45Q20.10 23.25 20.68 21.30Q21.25 19.35 22.05 17.17Q22.85 15 23.80 13.25Q21.55 13.15 19.05 13.42Q16.55 13.70 14.33 14.38Q12.10 15.05 10.73 16.22Q9.35 17.40 9.35 19.10Q9.35 20.10 9.93 20.72Q10.50 21.35 11.23 21.70Q11.95 22.05 12.35 22.30Q12.70 22.50 12.70 22.65Q12.70 22.90 12.20 22.75Q10.55 22.40 9.35 21.02Q8.15 19.65 8.15 17.95Q8.05 16.05 9.10 14.75Q10.15 13.45 11.95 12.63Q13.75 11.80 16 11.42Q18.25 11.05 20.55 11.05Q21.80 11.05 22.95 11.13Q24.10 11.20 25.15 11.40Q25.70 10.75 26.35 10.35Q27.00 9.95 27.70 9.95Q28.25 9.95 28.25 10.30Q28.25 10.70 27.70 10.80Q27.00 10.90 26.30 11.65Q26.95 11.85 27.53 12.05Q28.10 12.25 28.60 12.50Q28.90 12.65 29.38 13.15Q29.85 13.65 29.85 13.90Q29.85 14.15 29.50 14.15Q29.30 14.15 29.00 14.10Q28.70 14.05 28.25 13.90Q27.05 13.50 25.30 13.35Q24.75 14.75 24.20 16.60Q23.65 18.45 23.18 20.30Q22.70 22.15 22.20 23.75Q24.75 23.05 26.20 23.05Q26.80 23.05 27.00 23.20Q27.20 23.35 27.20 23.60Q27.20 24.05 26.85 23.90Q26.55 23.80 26.15 23.80Q25.45 23.80 24.50 24Q23.55 24.20 22.78 24.57Q22.00 24.95 21.80 25.45Q19.80 30.90 17.48 34.70Q15.15 38.50 12.75 40.83Q10.35 43.15 8.15 44.20Q5.95 45.25 4.20 45.25M5.20 43.85Q7.05 43.85 8.88 42.42Q10.70 41 12.35 38.75Q14 36.50 15.40 33.95Q16.80 31.40 17.80 29.10Q18.80 26.80 19.30 25.40Q15.20 26.75 11.70 29Q8.20 31.25 5.45 34.65Q3.95 36.50 3.28 38.13Q2.60 39.75 2.60 40.95Q2.60 42.30 3.30 43.08Q4 43.85 5.20 43.85ZM32.85 40.55Q31.45 40.55 30.40 39.90Q28.65 38.85 28.65 36.10Q28.65 34.95 29.05 33.45Q29.40 32.20 30.30 30.73Q31.20 29.25 32.43 27.90Q33.65 26.55 35.10 25.70Q36.55 24.85 38 24.85Q38.60 24.85 39.05 25Q39.65 25.20 40.08 25.73Q40.50 26.25 40.50 27.05Q40.50 27.90 40.08 28Q39.65 28.10 39.65 27.80Q39.65 27.70 39.68 27.60Q39.70 27.50 39.70 27.45Q39.70 27.05 39.48 26.73Q39.25 26.40 38.65 26.40Q37.85 26.40 36.68 27.25Q35.50 28.10 34.28 29.52Q33.05 30.95 32.13 32.65Q31.20 34.35 30.90 36.05Q30.85 36.30 30.83 36.52Q30.80 36.75 30.80 37Q30.80 38.15 31.33 38.92Q31.85 39.70 33 39.70Q34.40 39.70 35.70 38.63Q37 37.55 38.03 36.05Q39.05 34.55 39.55 33.40Q39.95 32.50 40.10 31.85Q40.25 31.20 40.25 30.75Q40.25 30.35 40.18 30.05Q40.10 29.75 40 29.55Q39.90 29.25 39.90 29.10Q39.90 28.70 40.23 28.45Q40.55 28.20 40.90 28.20Q41.20 28.20 41.55 28.40Q41.95 28.50 42.65 28.55Q43.35 28.60 44.15 28.60Q45 28.60 45.88 28.55Q46.75 28.50 47.40 28.35Q47.50 28.30 47.70 28.30Q48.05 28.30 48.05 28.50Q48.05 28.70 47.70 28.85Q45.95 29.65 44.58 29.70Q43.20 29.75 42.20 29.75Q42.30 31 41.65 32.42Q41 33.85 40.30 34.95Q39.45 36.20 38.35 37.50Q37.25 38.80 35.90 39.67Q34.55 40.55 32.85 40.55ZM50.85 40.75Q48.60 40.75 46.95 39.70Q45.30 38.65 45.30 36.50Q45.30 35.35 46.00 33.70Q46.50 32.55 47.85 31.05Q49.20 29.55 51.00 28.13Q52.80 26.70 54.65 25.77Q56.50 24.85 58.00 24.85Q58.55 24.85 59.00 25Q59.85 25.30 60.18 25.95Q60.50 26.60 60.50 27.30Q60.50 27.95 60.30 28.55Q60.10 29.15 59.80 29.60Q58.90 30.95 57.23 32Q55.55 33.05 53.83 33.65Q52.10 34.25 51.00 34.35L50.90 34.35Q50.25 34.35 50.25 33.95Q50.25 33.70 50.65 33.70Q51.85 33.60 53.68 32.58Q55.50 31.55 56.90 30.45Q57.50 29.95 58.33 29.05Q59.15 28.15 59.15 27.30Q59.15 26.40 58.30 26.40Q57.85 26.40 57.38 26.60Q56.90 26.80 56.60 26.90Q55.15 27.60 53.40 29.07Q51.65 30.55 50.23 32.38Q48.80 34.20 48.25 36.05Q48.10 36.45 48.05 36.83Q48.00 37.20 48.00 37.55Q48.00 38.75 48.78 39.25Q49.55 39.75 50.65 39.75Q52.30 39.75 54.05 39.02Q55.80 38.30 57.45 37.15Q59.10 36 60.48 34.67Q61.85 33.35 62.80 32.10Q62.95 31.90 63.15 31.88Q63.35 31.85 63.40 31.95Q63.60 32 63.60 32.23Q63.60 32.45 63.50 32.65Q62.10 34.60 60.13 36.45Q58.15 38.30 55.78 39.52Q53.40 40.75 50.85 40.75ZM65.45 40.50Q63.35 40.50 62.53 39.45Q61.70 38.40 61.70 36.85Q61.70 35.40 62.38 33.20Q63.05 31 64.15 28.45Q65.25 25.90 66.53 23.38Q67.80 20.85 69.08 18.72Q70.35 16.60 71.30 15.30Q72.25 14.05 73.35 12.80Q74.45 11.55 75.80 10.70Q77.15 9.85 78.85 9.85Q80 9.85 80.83 10.47Q81.65 11.10 81.65 12.35Q81.65 12.85 81.48 13.50Q81.30 14.15 80.90 14.85Q77.85 20.15 73.63 24.65Q69.40 29.15 64.70 33Q64.50 33.75 64.33 34.35Q64.15 34.95 64.05 35.30Q64 35.55 64 35.83Q64 36.10 64 36.35Q64 37.55 64.40 38.45Q64.80 39.35 65.75 39.35Q66.65 39.35 67.98 38.48Q69.30 37.60 70.65 36.33Q72 35.05 73.10 33.85Q74.20 32.65 74.65 32Q74.80 31.85 74.95 31.85Q75.15 31.85 75.28 32.05Q75.40 32.25 75.25 32.55Q74.75 33.40 73.65 34.65Q72.55 35.90 71.20 37.17Q69.85 38.45 68.60 39.40Q67.05 40.50 65.45 40.50M65.40 31Q67.30 29.70 69.35 27.63Q71.40 25.55 73.38 23.10Q75.35 20.65 76.98 18.25Q78.60 15.85 79.60 13.90Q79.90 13.35 80.03 12.92Q80.15 12.50 80.15 12.15Q80.15 11.20 79.35 11.20Q78.65 11.20 77.60 11.95Q74.90 14.05 72.60 17.32Q70.30 20.60 68.50 24.20Q66.70 27.80 65.40 31Z"/></g></g></svg>