<svg xmlns="http://www.w3.org/2000/svg" viewBox="0 9 88.3499984741211 61.30000305175781" data-asc="0.925" width="88.3499984741211" height="61.30000305175781"><defs/><g fill="#000000"><g transform="translate(0, 0)"><path d="M1.55 69Q1.55 69.20 1.70 69.20Q3.15 69.20 11.13 60.48Q19.10 51.75 28.25 40.35Q20.65 45.40 14.15 51.10Q6.40 57.80 3.30 63.35Q1.55 66.50 1.55 69M0.50 70.30Q0 70.30 0 69.65Q0 66.30 2.78 62.10Q5.55 57.90 10.15 53.75Q18.55 46.05 29.25 39.15Q37.40 28.90 42.67 21.07Q47.95 13.25 47.95 10.80Q47.95 10.05 47.73 9.90Q47.50 9.75 46.65 9.75Q42.90 9.75 37.53 12.63Q32.15 15.50 27.60 19.32Q23.05 23.15 19.80 27.15Q16.55 31.15 16.55 33.30Q16.55 35.15 18.95 35.15Q21.35 35.15 25.20 33.15Q29.05 31.15 31.75 29.15L34.50 27.15L34.95 27.25Q31.65 30.15 27.15 32.75Q25.25 33.85 22.83 34.77Q20.40 35.70 18.60 35.70Q15.65 35.70 15.65 33.20Q15.65 30.70 18.50 26.63Q21.35 22.55 25.65 18.63Q29.95 14.70 35.70 11.85Q41.45 9 46.50 9Q47.75 9 48.15 9.50Q48.55 10 48.55 11.25Q48.55 17.70 34.10 36.15Q37.60 34 37.92 34Q38.25 34 38.25 34.15Q38.25 34.30 38.05 34.45Q36.70 35.05 33.35 37.10Q23.65 49.30 13.30 59.80Q2.95 70.30 0.50 70.30ZM47.65 35L47.65 34.95Q46.65 35.45 45.45 37.33Q44.25 39.20 44.05 40.55Q47.65 36.85 47.65 35M37 45.45Q38.90 45.45 43.15 41.45L43.15 41.20Q43.15 39.65 44.67 37.38Q46.20 35.10 47.45 34.45Q47.30 34.30 47.05 34.30Q45.20 34.30 40.92 38.55Q36.65 42.80 36.65 45.15Q36.65 45.45 37 45.45M35.45 44.75Q35.45 41 39.77 37.27Q44.10 33.55 46.95 33.55Q48.35 33.55 48.35 34.80Q48.35 38.35 44.55 41.90Q44.85 42 45.15 42Q46.55 42 49.20 40.25L49.45 40.75Q46.25 42.90 44.60 42.90Q43.95 42.90 43.65 42.65Q41.70 44.25 39.55 45.25Q37.40 46.25 36.42 46.25Q35.45 46.25 35.45 44.75ZM59.95 33.40Q59.95 33.25 59.75 33.25Q58.40 33.25 55.55 35.60Q52.70 37.95 50.60 40.75Q53.10 39.95 56.53 37.15Q59.95 34.35 59.95 33.40M48.40 45.20Q48.40 45.85 48.90 45.85Q49.50 45.85 51.60 45.02Q53.70 44.20 55.05 43.40L59.95 40.30L60 40.95Q54.75 44.45 52.18 45.40Q49.60 46.35 48.75 46.35Q47.35 46.35 47.35 44.60Q47.35 42.25 49.05 39.90Q50.75 37.55 53.03 36.05Q55.30 34.55 57.43 33.60Q59.55 32.65 60.65 32.65Q61.75 32.65 61.75 33.40Q61.75 35.25 57.38 37.90Q53 40.55 50.10 41.40Q48.40 43.85 48.40 45.20ZM86.95 13.35Q85.45 13.35 75.90 22.95Q66.35 32.55 61.40 39.40Q66 35.90 76.53 25.67Q87.05 15.45 87.05 13.50Q87.05 13.40 86.95 13.35M87.90 12.45Q88.35 12.45 88.35 13Q88.35 15.40 77.63 25.77Q66.90 36.15 60.60 40.55Q58.40 43.70 58.40 45.10Q58.40 45.55 58.60 45.55Q60.65 45.55 65.95 42.25L68.95 40.30L69 40.95Q67.75 41.75 66.15 42.75Q60.35 46.35 58.10 46.35Q57.50 46.35 57.50 45.40Q57.50 42.50 61.55 36.83Q65.60 31.15 70.83 25.82Q76.05 20.50 81.08 16.47Q86.10 12.45 87.90 12.45Z"/></g></g></svg>