<svg xmlns="http://www.w3.org/2000/svg" viewBox="0 12.850000381469727 57.94166946411133 43.85000228881836" data-asc="0.89" width="57.94166946411133" height="43.85000228881836"><defs/><g fill="#000000"><g transform="translate(0, 0)"><path d="M1.80 56.70Q0.90 56.70 0.45 56.10Q0 55.50 0 54.50Q0 52.60 1.30 50.65Q2.40 49.05 4.33 47.05Q6.25 45.05 8.45 43.10Q10.65 41.15 12.55 39.75Q14.75 38.10 16.20 37.08Q17.65 36.05 18.95 35.30Q20.25 34.55 21.95 33.75Q26.55 25.80 27.50 17.65Q27.55 17.50 27.55 16.95Q27.55 14.90 25.85 14.90Q24.60 14.90 22.45 16Q21.15 16.65 19.70 17.65Q18.25 18.65 17.10 19.57Q15.95 20.50 15.50 21.05Q13.65 23.15 12.18 25.45Q10.70 27.75 10 29.65Q9.50 30.85 9.50 32Q9.50 33.90 11.35 33.60Q13.70 33.20 15.85 32.15Q18 31.10 19.40 29.95Q19.65 29.80 20 29.65Q20.35 29.50 20.55 29.50Q20.65 29.50 20.65 29.55Q20.65 29.70 20.40 29.95Q17.95 31.85 15.83 33.02Q13.70 34.20 11.40 34.55Q10.95 34.60 10.65 34.63Q10.35 34.65 10.15 34.65Q8.65 34.65 7.90 33.95Q7.15 33.25 7.15 32Q7.15 29.95 8.90 26.82Q10.65 23.70 13.45 20.60Q15.55 18.25 17.80 16.63Q20.05 15 22.10 14.05Q24.15 13.10 25.55 12.90Q25.70 12.85 26.15 12.85Q27.65 12.85 28.57 13.85Q29.50 14.85 29.50 16.65Q29.50 16.85 29.48 17.10Q29.45 17.35 29.40 17.70Q28.25 25.40 24.25 33L25.05 32.65Q25.60 32.45 25.95 32.45Q26.65 32.45 26.65 32.75Q26.65 32.95 26.25 33.20Q25.45 33.60 24.75 33.92Q24.05 34.25 23.40 34.50Q21.05 38.15 18.18 41.98Q15.30 45.80 12.20 49.17Q9.10 52.55 5.95 54.85Q3.45 56.70 1.80 56.70M2.65 53.95Q3.95 53.95 5.65 52.55Q7.20 51.30 9.13 49.48Q11.05 47.65 12.95 45.67Q14.85 43.70 16.40 41.92Q17.95 40.15 18.70 39Q19.30 38.05 19.80 37.23Q20.30 36.40 20.70 35.70Q19.60 36.25 18.60 36.83Q17.60 37.40 16.70 38Q16.05 38.40 15.05 39.15Q14.05 39.90 12.65 40.95Q11.00 42.15 9.05 43.98Q7.10 45.80 5.38 47.70Q3.65 49.60 2.55 51.20Q1.70 52.45 1.70 53.15Q1.70 53.75 2.20 53.90Q2.25 53.95 2.65 53.95ZM24.35 45.35Q22.40 45.35 22.40 43.60Q22.40 43.50 22.43 43.25Q22.45 43 22.50 42.65Q23 40.60 24.53 38.67Q26.05 36.75 28.05 35.30Q28.80 34.70 30.45 34.70Q31.40 34.70 32.13 34.98Q32.85 35.25 33.15 35.80Q33.45 36.30 33.45 36.95Q33.45 37.05 33.42 37.25Q33.40 37.45 33.35 37.70Q33.45 37.65 33.67 37.65Q33.90 37.65 34.25 37.60Q34.60 37.55 34.92 37.50Q35.25 37.45 35.60 37.45L35.80 37.45Q36.35 37.45 35.92 37.88Q35.50 38.30 34.80 38.40L33.10 38.60Q32.60 40 31.38 41.40Q30.15 42.80 28.68 43.83Q27.20 44.85 25.90 45.15Q25.15 45.35 24.35 45.35M30.75 37.90Q31.05 37.90 31.48 37.88Q31.90 37.85 32.45 37.80Q32.50 37.70 32.50 37.35Q32.50 36.45 31.75 36.10Q31.35 35.85 30.75 35.85Q30 35.85 29.23 36.33Q28.45 36.80 27.60 37.55Q28.65 37.90 30.75 37.90M25.85 43.60Q26.35 43.60 27.28 43.13Q28.20 42.65 29.20 41.85Q30.20 41.05 31 40.15Q31.25 39.90 31.50 39.52Q31.75 39.15 32.05 38.75L30.85 38.90Q28.05 39.30 25.85 39.35Q24.75 41.15 24.50 42.35Q24.45 43 24.85 43.30Q25.25 43.60 25.85 43.60ZM37.35 45.05Q36.30 45.05 35.50 44.50Q34.20 43.50 34.20 41.50Q34.20 39.50 35.60 37.25Q37 35 39.85 33.10Q40.35 32.75 41.20 32.75Q42.30 32.75 43.18 33.35Q44.05 33.95 43.85 34.90Q43.50 36.45 42.33 37.65Q41.15 38.85 39.58 39.77Q38 40.70 36.35 41.55Q36.30 41.70 36.27 41.85Q36.25 42 36.25 42.15Q36.25 42.85 36.73 43.38Q37.20 43.90 38.05 43.90Q38.70 43.90 39.15 43.70Q39.95 43.40 40.48 43.15Q41 42.90 41.70 42.40Q42.40 41.90 43.60 40.90Q44.15 40.50 44.25 40.50Q44.55 40.50 44.45 40.95Q43.95 41.75 42.73 42.70Q41.50 43.65 40.03 44.35Q38.55 45.05 37.35 45.05M36.65 40.20Q37.05 40.20 38.30 39.40Q39.55 38.60 40.65 37.65Q42.55 35.90 42.55 34.95Q42.55 34.70 42.40 34.50Q42.25 34.25 41.95 34.25Q41 34.25 38.75 36.50Q37.20 38 36.65 40.20ZM44.55 47.80Q44 47.80 43.63 47.45Q43.25 47.10 43.30 46.60Q43.40 44.55 44.08 42.65Q44.75 40.75 46.05 38.10Q46.20 37.75 46.33 37.48Q46.45 37.20 46.55 37Q47.65 34.65 48.80 32.50Q49.95 30.35 51.10 28.30L51.80 27.05Q53 24.90 53.90 23.57Q54.80 22.25 55.70 21.65Q56.85 20.95 57.10 20.95Q57.50 20.95 57.90 21.65Q58.15 22.15 56.90 24.10Q56.25 25.10 55.27 26.60Q54.30 28.10 52.95 30Q52.70 30.35 52.13 31.23Q51.55 32.10 50.60 33.50Q49.65 34.90 48.95 36.02Q48.25 37.15 47.80 38Q46.90 39.65 46.10 41.52Q45.30 43.40 45.30 44.45Q45.30 45.40 46.05 45.40Q47.25 45.40 49.90 43.35Q50.20 43.40 50.20 43.65Q50.20 43.85 49.70 44.35Q49.25 44.80 48.58 45.33Q47.90 45.85 47 46.55L46.20 47.15Q45.40 47.80 44.55 47.80Z"/></g></g></svg>