<svg version="1.1" id="Layer_1" xmlns="http://www.w3.org/2000/svg" xmlns:xlink="http://www.w3.org/1999/xlink" x="0px" y="0px"
	 width="100%" viewBox="0 0 2048 2048" enable-background="new 0 0 2048 2048" xml:space="preserve">
<path fill="#fff" opacity="1.000000" stroke="none" 
	d="
M307.556274,1380.383301 
	C321.772491,1355.708374 334.943359,1330.802246 350.069794,1307.146484 
	C365.560150,1282.921509 382.298492,1259.412842 399.730072,1236.535034 
	C415.543427,1215.781006 432.486725,1195.815063 449.920563,1176.389038 
	C467.697449,1156.580688 486.294312,1137.463623 505.243927,1118.765259 
	C523.708252,1100.545898 542.744812,1082.869507 562.141724,1065.643311 
	C579.043274,1050.633423 596.806702,1036.594727 614.172424,1022.106567 
	C643.609924,997.547058 674.786316,975.348328 706.565857,953.964355 
	C720.641907,944.492798 734.705566,935.002197 748.699768,925.410889 
	C749.804565,924.653625 750.537170,923.125916 751.077942,921.806763 
	C763.011902,892.695923 775.188477,863.679688 786.714478,834.407471 
	C802.237244,794.984802 817.631714,755.502930 832.361267,715.779419 
	C843.877441,684.722046 854.469116,653.316650 865.144104,621.954407 
	C872.055115,601.650513 878.387573,581.149536 884.938538,560.723755 
	C885.427979,559.197876 885.588806,557.566528 886.157593,554.696350 
	C881.148987,557.086060 877.001526,558.845093 873.057312,560.979675 
	C812.773987,593.604126 754.790283,629.958496 699.196289,670.005920 
	C676.517883,686.342346 654.969055,704.268982 633.225830,721.866943 
	C627.337219,726.632812 622.226196,732.528687 617.473145,738.477051 
	C613.345520,743.642822 614.661865,746.648621 620.822754,748.931702 
	C621.445374,749.162415 622.240234,749.205566 622.672302,749.626221 
	C624.752014,751.651611 627.945007,753.566589 628.356506,755.935181 
	C628.667419,757.725342 625.809448,760.867188 623.623840,762.157837 
	C610.951355,769.640869 596.803284,773.475891 582.851929,768.862671 
	C560.437622,761.451172 550.414062,743.240051 558.504211,719.406616 
	C562.750000,706.898682 571.095276,696.816956 580.049622,687.294739 
	C597.929688,668.280823 618.361328,652.301514 639.607361,637.307007 
	C651.709900,628.765747 663.682739,620.004150 676.154663,612.031189 
	C696.344360,599.124451 716.735229,586.513123 737.337952,574.276978 
	C761.535217,559.905884 785.789612,545.591675 810.496765,532.129333 
	C837.237854,517.558838 864.493164,503.927856 891.603821,490.042480 
	C899.566528,485.964203 907.711121,482.206299 915.939331,478.692474 
	C921.868286,476.160553 928.127258,476.365387 933.889832,479.277710 
	C939.651978,482.189819 945.721130,484.971710 950.588562,489.076111 
	C960.283325,497.250916 962.762512,508.525909 960.044434,520.445312 
	C956.754761,534.870911 952.893616,549.205994 948.464478,563.324524 
	C933.816772,610.015564 919.370911,656.782837 903.764404,703.156311 
	C888.899719,747.325562 872.717651,791.052246 857.019653,834.939514 
	C853.549255,844.641663 849.647583,854.189026 846.012878,863.833435 
	C845.037964,866.420410 844.315002,869.102356 842.982910,873.292847 
	C850.883240,869.061218 857.526550,865.520874 864.153381,861.950073 
	C885.539001,850.426514 906.685120,838.428223 928.374268,827.508118 
	C945.748108,818.760681 963.537598,810.714417 981.597839,803.496094 
	C994.831604,798.206909 1008.529175,793.861755 1023.176270,793.585510 
	C1042.522461,793.220581 1055.546143,802.697205 1064.635620,818.873718 
	C1074.622559,836.647278 1076.818970,856.443298 1079.029663,876.124695 
	C1081.612183,899.113464 1083.509399,922.179138 1085.719116,945.209961 
	C1085.842529,946.496643 1086.102539,947.770142 1086.474121,950.190430 
	C1088.879517,948.691895 1090.824463,947.688171 1092.538452,946.381714 
	C1126.836670,920.238037 1160.728516,893.541687 1195.494507,868.036926 
	C1228.903076,843.527893 1263.014893,819.959290 1297.173096,796.494812 
	C1342.309326,765.488953 1387.670166,734.805176 1433.174561,704.341858 
	C1457.517090,688.045593 1482.448486,672.631958 1506.963013,656.588989 
	C1543.172241,632.892639 1579.461182,609.307312 1615.305542,585.067566 
	C1640.394409,568.101257 1665.131958,550.569458 1689.409668,532.463257 
	C1712.202759,515.464417 1734.821777,498.112915 1756.286865,479.497681 
	C1769.127686,468.361816 1779.824463,454.688660 1790.962158,441.707550 
	C1793.244263,439.047821 1792.985474,434.313477 1794.304565,430.683105 
	C1795.116333,428.448883 1796.268799,425.770416 1798.096191,424.684021 
	C1799.210938,424.021271 1802.430176,425.487274 1803.784180,426.887146 
	C1809.106079,432.389008 1809.734253,439.335632 1808.639648,446.510132 
	C1806.678955,459.359528 1800.381226,470.334290 1793.333862,480.927307 
	C1777.897705,504.129791 1758.311035,523.664368 1738.228638,542.714294 
	C1703.819092,575.354675 1665.988037,603.824646 1627.651123,631.532104 
	C1587.024170,660.894653 1545.647827,689.225098 1504.457520,717.802734 
	C1454.101562,752.739563 1403.440918,787.238770 1353.220581,822.368469 
	C1324.569946,842.409973 1296.270264,862.978027 1268.286377,883.941406 
	C1230.308105,912.391663 1192.599731,941.210815 1155.140503,970.340942 
	C1135.702515,985.456787 1117.022095,1001.548889 1098.110107,1017.332581 
	C1096.964478,1018.288757 1096.102661,1020.500732 1096.278320,1021.990540 
	C1100.877075,1060.991333 1108.035767,1099.364258 1125.352295,1135.088867 
	C1131.035400,1146.813354 1138.890259,1156.826294 1149.688110,1164.358032 
	C1164.088623,1174.402832 1179.577637,1173.526611 1195.159302,1168.338257 
	C1220.183838,1160.005981 1242.346313,1146.262695 1263.921265,1131.357056 
	C1285.605103,1116.376099 1306.102661,1099.973511 1325.672607,1082.357300 
	C1326.726562,1081.408447 1328.556396,1081.321655 1330.025146,1080.833618 
	C1330.375488,1082.366943 1331.428955,1084.167725 1330.963745,1085.390869 
	C1327.550537,1094.366699 1324.757935,1103.752197 1320.053345,1112.033447 
	C1298.324219,1150.283325 1269.271362,1182.022339 1232.904785,1206.869751 
	C1216.107544,1218.346436 1197.908813,1227.235840 1177.740723,1230.554443 
	C1141.173584,1236.571411 1109.356567,1227.091675 1084.267456,1198.898926 
	C1065.267090,1177.548096 1054.096558,1151.971191 1046.118652,1124.925171 
	C1041.606323,1109.627563 1037.992432,1094.065063 1033.949463,1078.628296 
	C1033.706787,1077.702026 1033.248291,1076.832397 1032.584351,1075.171387 
	C1029.582886,1077.565308 1026.840332,1079.591553 1024.275635,1081.822632 
	C990.947510,1110.815063 958.960815,1141.238159 929.045105,1173.727905 
	C900.102966,1205.160278 872.022888,1237.385010 843.242432,1268.968628 
	C835.880005,1277.048096 827.760132,1284.602661 819.169861,1291.357422 
	C807.454102,1300.569824 793.736267,1303.239136 779.544434,1298.246338 
	C767.898193,1294.149170 761.513428,1284.763916 759.813721,1272.759766 
	C757.975220,1259.775024 762.810852,1248.160767 769.007874,1237.112427 
	C781.695496,1214.492310 799.060974,1195.503906 817.398682,1177.594116 
	C842.404663,1153.171753 868.003784,1129.317017 894.104858,1106.067993 
	C915.065308,1087.397827 937.141602,1069.979858 958.739014,1052.025757 
	C978.306091,1035.759521 997.921936,1019.551636 1017.405640,1003.186279 
	C1018.537170,1002.235779 1019.298767,1000.054382 1019.181519,998.526489 
	C1017.489258,976.455994 1015.743042,954.387878 1013.744629,932.343201 
	C1012.316956,916.595154 1010.951172,900.815308 1008.638977,885.185547 
	C1007.589966,878.094604 1005.029419,870.982239 1001.859009,864.514771 
	C998.213318,857.077698 992.531799,854.642456 984.727600,857.433533 
	C968.787109,863.134399 952.836792,869.023743 937.493408,876.136108 
	C897.285522,894.774170 858.702820,916.555542 820.236572,938.511169 
	C818.678223,939.400574 817.316406,941.185669 816.571960,942.867249 
	C804.174561,970.870544 792.383179,999.153259 779.462524,1026.910889 
	C761.408936,1065.695679 743.208740,1104.441650 723.812134,1142.563477 
	C705.253479,1179.038818 686.020935,1215.242310 665.369934,1250.562866 
	C643.110291,1288.634888 619.117859,1325.707397 595.409912,1362.915527 
	C568.323242,1405.426514 536.978149,1444.754639 503.945343,1482.754883 
	C480.956055,1509.201416 456.375916,1534.118408 429.118622,1556.145264 
	C405.073822,1575.576050 379.595612,1592.889404 348.939484,1600.582886 
	C325.381744,1606.494995 303.143066,1605.058838 284.435059,1587.543701 
	C272.597931,1576.461548 267.705933,1561.776489 265.179352,1546.253418 
	C260.960876,1520.335571 265.585938,1495.224243 272.286652,1470.259155 
	C280.654724,1439.081665 292.736664,1409.402222 307.556274,1380.383301 
M592.536499,1102.025757 
	C562.899597,1128.169067 535.376648,1156.439941 508.599915,1185.459839 
	C462.828278,1235.065796 422.225189,1288.541016 387.895020,1346.714233 
	C364.032532,1387.149658 343.727142,1429.148926 331.412201,1474.680664 
	C327.101471,1490.618652 322.891876,1506.595337 323.647644,1523.307739 
	C324.253265,1536.699707 333.491608,1542.168701 345.335052,1535.931030 
	C353.704926,1531.522583 361.999695,1526.791138 369.695221,1521.314819 
	C398.910248,1500.524048 423.279053,1474.497803 447.083435,1447.986816 
	C474.365173,1417.603027 498.767456,1384.916138 522.661377,1351.839355 
	C550.457397,1313.360718 575.171753,1272.904663 599.483093,1232.204224 
	C610.827393,1213.212158 621.506226,1193.811646 632.103516,1174.386963 
	C644.532043,1151.605713 656.820862,1128.738892 668.650513,1105.642822 
	C678.513062,1086.387329 687.651245,1066.759888 697.060974,1047.273315 
	C704.129761,1032.634644 711.120300,1017.958252 718.145691,1003.298584 
	C717.751099,1002.898132 717.356506,1002.497681 716.961914,1002.097168 
	C715.689331,1002.749268 714.293396,1003.235840 713.162781,1004.078430 
	C698.632629,1014.907837 683.712830,1025.268311 669.731140,1036.768188 
	C643.893250,1058.019775 618.610779,1079.946411 592.536499,1102.025757 
z"/>
<path fill="#000" opacity="1.000000" stroke="none" 
	d="
M592.816711,1101.808838 
	C618.610779,1079.946411 643.893250,1058.019775 669.731140,1036.768188 
	C683.712830,1025.268311 698.632629,1014.907837 713.162781,1004.078430 
	C714.293396,1003.235840 715.689331,1002.749268 716.961914,1002.097168 
	C717.356506,1002.497681 717.751099,1002.898132 718.145691,1003.298584 
	C711.120300,1017.958252 704.129761,1032.634644 697.060974,1047.273315 
	C687.651245,1066.759888 678.513062,1086.387329 668.650513,1105.642822 
	C656.820862,1128.738892 644.532043,1151.605713 632.103516,1174.386963 
	C621.506226,1193.811646 610.827393,1213.212158 599.483093,1232.204224 
	C575.171753,1272.904663 550.457397,1313.360718 522.661377,1351.839355 
	C498.767456,1384.916138 474.365173,1417.603027 447.083435,1447.986816 
	C423.279053,1474.497803 398.910248,1500.524048 369.695221,1521.314819 
	C361.999695,1526.791138 353.704926,1531.522583 345.335052,1535.931030 
	C333.491608,1542.168701 324.253265,1536.699707 323.647644,1523.307739 
	C322.891876,1506.595337 327.101471,1490.618652 331.412201,1474.680664 
	C343.727142,1429.148926 364.032532,1387.149658 387.895020,1346.714233 
	C422.225189,1288.541016 462.828278,1235.065796 508.599915,1185.459839 
	C535.376648,1156.439941 562.899597,1128.169067 592.816711,1101.808838 
z"/>
</svg>
