<svg version="1.1" id="Layer_1" xmlns="http://www.w3.org/2000/svg" xmlns:xlink="http://www.w3.org/1999/xlink" x="0px" y="0px"
	 width="100%" viewBox="0 0 1024 1024" enable-background="new 0 0 1024 1024" xml:space="preserve">
<path fill="#fff" opacity="1.000000" stroke="none" 
	d="
M702.264648,676.498901 
	C673.108154,682.233521 649.784790,672.600891 630.867432,651.062927 
	C614.211548,632.099792 602.455200,610.050476 591.530273,587.514221 
	C588.624084,581.519348 585.806702,575.481323 582.922302,569.475769 
	C582.150452,567.868774 581.783508,565.636292 579.587463,565.521423 
	C577.486633,565.411499 576.624756,567.419128 575.615662,568.917542 
	C561.472046,589.920044 547.439819,610.998413 533.168945,631.914001 
	C524.908691,644.020264 516.641541,656.153748 507.118927,667.326111 
	C500.871368,674.656006 493.023590,679.039490 483.042114,678.187866 
	C467.193909,676.835876 459.244141,658.490173 468.812592,644.873535 
	C477.143250,633.018311 486.045898,621.566833 494.551636,609.832458 
	C505.792480,594.324768 516.903931,578.723206 528.033386,563.135132 
	C528.979675,561.809753 529.643127,560.282471 530.800659,558.195007 
	C524.722290,558.134460 519.509338,559.719543 514.225342,560.484497 
	C489.701569,564.035095 465.213837,567.837646 440.676331,571.288086 
	C435.097534,572.072571 432.072449,574.077942 430.562225,580.026794 
	C422.837708,610.455017 412.595062,639.979370 397.180176,667.507935 
	C375.053101,707.023499 343.887756,736.345215 300.915314,751.934021 
	C273.457092,761.894836 245.640106,763.037048 217.761093,753.075745 
	C178.168716,738.929138 160.007950,695.752869 177.077896,656.516663 
	C186.758591,634.265076 202.918045,617.579285 221.970963,603.277100 
	C248.692581,583.218506 278.888733,570.212524 310.328735,559.740723 
	C338.019104,550.517883 366.371552,543.909973 395.051086,538.688232 
	C398.847107,537.997131 399.871918,535.845154 400.468048,532.728943 
	C404.122772,513.624146 407.066406,494.400543 409.618134,475.127075 
	C413.807648,443.483368 417.493073,411.772125 421.814240,380.147156 
	C423.208405,369.944122 426.057037,359.959229 430.137207,350.410583 
	C430.708923,349.072540 431.792236,347.857391 431.338837,346.232178 
	C430.098267,344.898956 428.811249,345.788147 427.634125,346.185364 
	C401.918243,354.862976 376.091766,363.278320 352.215424,376.521393 
	C337.303284,384.792419 322.788971,393.613892 312.343384,407.597198 
	C310.358154,410.254791 308.713409,413.178772 307.037811,416.053375 
	C301.822632,425.000305 293.484222,428.359650 284.198456,425.178162 
	C275.127991,422.070404 269.989166,413.318237 271.405914,403.416809 
	C272.507599,395.717407 276.411865,389.309082 281.069244,383.389984 
	C292.258850,369.169037 306.567993,358.631439 321.925323,349.361206 
	C345.476959,335.144592 370.996796,325.552673 396.981079,316.945709 
	C424.470917,307.840057 452.604706,300.714722 479.449219,289.594818 
	C490.271606,285.111755 502.077057,290.194702 506.968658,300.289307 
	C511.209930,309.041870 508.452637,318.803528 499.946442,324.260620 
	C496.736389,326.320038 493.256989,328.002411 489.781433,329.597565 
	C476.716705,335.593597 470.273376,346.701691 466.308167,359.736694 
	C461.192780,376.552673 459.517303,393.971558 457.273865,411.298798 
	C453.130066,443.303314 450.286316,475.470001 445.292450,507.367096 
	C444.116028,514.881165 442.781464,522.370422 441.508942,529.934753 
	C445.580597,531.667053 449.128265,530.156494 452.656494,529.687256 
	C484.968262,525.389709 517.373291,521.682129 549.265869,514.685059 
	C550.563354,514.400391 551.839661,514.016602 553.139832,513.746521 
	C556.700562,513.006836 557.202942,511.123657 555.775879,507.932220 
	C540.755737,474.340118 526.459290,440.415405 509.481506,407.727234 
	C502.417542,394.126648 504.371674,383.713318 515.023682,377.961823 
	C525.968628,372.052094 539.265259,376.373077 546.063721,388.578033 
	C550.513672,396.566864 554.504883,404.845001 558.191895,413.217987 
	C565.907288,430.739197 574.407715,447.924286 581.019104,465.924622 
	C581.586426,467.469238 582.046387,469.388092 584.046021,469.490234 
	C586.273438,469.603943 586.947083,467.485107 587.832825,465.969055 
	C599.771667,445.534180 612.145447,425.370544 626.102356,406.240021 
	C643.621948,382.226257 662.040466,358.978577 686.673645,341.662476 
	C700.084167,332.235443 715.031616,327.451599 731.501465,330.021942 
	C752.143616,333.243408 764.511719,346.809814 768.181519,369.280334 
	C771.061646,386.915710 766.548157,403.300110 759.635803,419.254669 
	C749.213501,443.310608 732.572754,462.648651 713.281921,479.918243 
	C686.749207,503.670837 655.762512,520.069092 623.310425,533.976501 
	C611.739990,538.934998 613.369873,537.688538 618.143311,547.800110 
	C627.814026,568.285706 637.314026,588.858643 649.211853,608.186523 
	C654.555359,616.866943 660.757263,624.899475 668.506165,631.649719 
	C680.514099,642.110107 692.240234,642.722839 705.220154,633.389404 
	C708.329285,631.153748 711.175110,628.537109 714.359802,626.423828 
	C727.026611,618.018616 742.673279,624.590820 744.923401,639.269958 
	C745.975037,646.130798 742.852539,651.692322 738.310608,656.348877 
	C728.423462,666.485413 716.577148,673.318298 702.264648,676.498901 
M298.028381,605.597229 
	C278.525299,613.908325 259.515259,623.059021 242.843399,636.476196 
	C229.952240,646.850708 218.640808,658.478455 212.510727,674.170105 
	C205.531265,692.036133 210.425339,706.858398 226.199844,715.786316 
	C239.801666,723.484680 254.607285,723.872864 269.423676,721.133789 
	C300.420013,715.403320 326.015869,700.102966 345.990631,675.729004 
	C368.148193,648.691406 379.396881,616.539917 388.477448,583.439148 
	C388.812561,582.217468 389.089691,580.780212 387.276245,579.485901 
	C357.157990,585.194336 327.500732,593.705078 298.028381,605.597229 
M631.498962,468.937195 
	C627.040955,476.533966 622.582947,484.130707 617.945312,492.033447 
	C620.840454,492.736786 622.089539,491.737152 623.402710,491.128937 
	C640.670715,483.130585 657.240356,473.889221 672.460022,462.431396 
	C691.608093,448.016113 709.009766,431.897888 720.806335,410.589386 
	C726.785889,399.788300 730.966492,388.540375 729.804504,375.874023 
	C729.105652,368.255554 724.487976,365.208282 717.439331,368.077179 
	C714.838806,369.135559 712.409302,370.658936 709.996155,372.125397 
	C698.748535,378.960480 689.791382,388.383179 681.176086,398.117065 
	C662.111389,419.656860 646.696716,443.781860 631.498962,468.937195 
z"/>
</svg>
