<svg version="1.1" id="Layer_1" xmlns="http://www.w3.org/2000/svg" xmlns:xlink="http://www.w3.org/1999/xlink" x="0px" y="0px"
	 width="100%" viewBox="0 0 1024 1024" enable-background="new 0 0 1024 1024" xml:space="preserve">
<path fill="#000000" opacity="1.000000" stroke="none" 
	d="
M673.973877,677.366943 
	C651.067688,672.767944 635.274353,658.762207 622.319641,640.867126 
	C606.705872,619.298950 595.232300,595.422668 583.918274,571.462952 
	C580.600952,564.437927 579.367615,564.284790 574.853821,570.810852 
	C555.525208,598.755798 536.303833,626.774963 517.042053,654.766235 
	C513.164551,660.401123 509.129822,665.909424 504.116150,670.617310 
	C499.611908,674.846863 494.365112,677.685974 488.173004,678.205139 
	C479.769989,678.909607 472.599487,676.394775 468.067657,668.837524 
	C463.353668,660.976624 463.261597,652.962280 468.657349,645.369324 
	C476.857910,633.829346 485.285980,622.451355 493.580139,610.977539 
	C504.704834,595.588135 515.812439,580.186157 526.869751,564.748291 
	C527.980713,563.197205 529.571960,561.722778 529.158020,559.500488 
	C527.960571,557.940247 526.454956,558.385742 524.994568,558.672791 
	C497.419006,564.093262 469.435577,566.830566 441.718262,571.323669 
	C432.498291,572.818237 432.586609,572.775696 430.286499,581.633667 
	C420.781830,618.237915 408.369141,653.636292 386.543427,685.028564 
	C363.764221,717.792297 333.811890,741.362061 295.820099,753.852234 
	C269.848297,762.390686 243.570465,762.887024 217.447708,753.458069 
	C188.428619,742.983643 168.829834,714.267151 170.854858,684.742859 
	C172.478775,661.066528 183.001968,641.341980 198.528152,624.115173 
	C217.951614,602.564148 242.256500,587.846069 268.368958,575.902527 
	C308.135101,557.714050 350.107697,546.819336 392.905426,538.829529 
	C397.865997,537.903503 399.848816,535.798401 400.717987,531.006897 
	C405.463470,504.845093 408.975372,478.499817 412.458832,452.159821 
	C415.572998,428.612427 417.611115,404.919098 421.677612,381.499786 
	C423.468994,371.183044 425.567230,360.903656 429.520477,351.114563 
	C430.105194,349.666687 431.230774,348.158722 430.130859,346.126190 
	C424.941803,346.183441 420.416382,348.917786 415.589447,350.424469 
	C389.935333,358.432098 364.926788,367.961365 342.002045,382.306549 
	C331.627197,388.798584 322.019989,396.238708 314.161224,405.637634 
	C309.124512,411.661499 304.249847,418.102417 307.357880,426.841370 
	C308.017090,428.694824 309.141510,430.397522 310.156830,432.107178 
	C315.476654,441.064850 314.735901,448.783386 307.904602,455.129578 
	C301.111877,461.439941 290.623108,462.288269 283.030640,456.768768 
	C270.979919,448.008209 266.210083,435.657745 266.468414,421.161621 
	C266.764008,404.573517 274.640564,391.206421 285.195221,379.210236 
	C302.503937,359.537415 324.577240,346.599243 347.916565,335.538452 
	C377.390594,321.570282 408.802795,313.202759 439.855896,303.807556 
	C453.090881,299.803253 466.170410,295.427612 478.851990,289.843536 
	C490.455566,284.734192 503.366211,290.454132 507.865967,302.242462 
	C510.684692,309.626862 508.962585,315.959381 503.548645,321.426361 
	C500.579926,324.424103 497.014069,326.687378 493.092041,328.125366 
	C477.972076,333.669128 470.524017,345.552277 466.363983,360.147156 
	C461.424011,377.478149 459.517242,395.309570 457.328369,413.140625 
	C453.663513,442.994843 450.748138,472.951904 445.789978,502.642029 
	C444.531036,510.180603 443.464966,517.751221 442.264099,525.299805 
	C441.584747,529.570129 443.431152,531.208313 447.571869,530.607849 
	C479.799835,525.933777 512.198059,522.365601 544.130615,515.776184 
	C547.062439,515.171204 549.918213,514.191589 552.854126,513.614075 
	C556.441467,512.908386 557.070190,511.096039 555.645325,507.910156 
	C550.275391,495.903198 545.129456,483.794739 539.661804,471.833008 
	C529.278320,449.117065 519.219360,426.250702 507.805664,404.011841 
	C503.012207,394.672119 504.724854,386.238678 511.910126,380.147644 
	C518.652649,374.431946 529.198364,374.135193 537.086060,379.204803 
	C542.649109,382.780304 546.192688,387.961334 549.044006,393.661255 
	C560.072449,415.708252 570.024048,438.242737 579.404907,461.037262 
	C580.541870,463.799835 580.634949,468.185303 584.340271,468.438171 
	C587.988953,468.687195 588.778687,464.453003 590.324463,461.854431 
	C610.878784,427.300476 632.362915,393.389557 660.369263,364.221741 
	C672.652161,351.429565 686.247375,340.321167 702.965820,333.383606 
	C723.162415,325.002838 744.417664,328.535339 757.820129,344.133850 
	C768.333069,356.369324 770.679443,371.433167 768.810120,386.911438 
	C764.178894,425.260345 742.147278,453.621613 714.722900,478.591583 
	C687.258240,503.598206 655.102112,520.919067 621.013062,534.977661 
	C619.028748,535.796021 617.112244,536.778931 615.067505,537.730225 
	C614.893127,541.074158 616.704773,543.639282 617.913757,546.242493 
	C628.014221,567.991394 637.919067,589.856812 650.839172,610.147095 
	C656.498291,619.034363 662.986023,627.253601 671.378540,633.812866 
	C682.049622,642.152954 694.202637,642.142700 704.826904,633.658936 
	C707.559753,631.476685 710.115112,629.058350 712.939819,627.007263 
	C726.082397,617.464172 741.378296,623.026428 744.998169,638.750427 
	C746.248840,644.183167 744.061829,649.180786 740.589478,653.022766 
	C722.845093,672.656372 701.042969,681.708191 673.973877,677.366943 
M286.170410,610.711182 
	C268.524506,618.751221 251.689560,628.140137 237.082016,641.055359 
	C226.121933,650.745728 216.562851,661.548462 212.057037,675.895874 
	C207.265091,691.154480 211.163757,704.433960 222.557281,713.016846 
	C236.932373,723.846008 253.249832,724.176514 269.763367,721.157166 
	C300.830872,715.476746 325.904419,699.331421 346.000488,675.251404 
	C368.085327,648.788452 379.185120,617.134521 388.400146,584.631042 
	C388.822174,583.142456 389.347076,581.372253 387.326233,579.492432 
	C353.194580,586.930176 319.094574,595.567566 286.170410,610.711182 
M668.518738,413.986786 
	C650.052490,438.820343 633.414124,464.798676 617.960327,492.337402 
	C621.337463,492.647491 622.937805,491.643311 624.561401,490.884338 
	C642.856079,482.332489 660.363281,472.464600 676.393066,460.080170 
	C692.318054,447.776733 706.817322,434.089081 717.208984,416.680359 
	C724.757019,404.035339 731.315247,390.904053 729.758057,375.398895 
	C729.049988,368.349213 725.153564,365.753906 718.395752,368.137024 
	C710.761536,370.829193 704.071594,375.127716 698.154663,380.651367 
	C687.414246,390.677826 677.700317,401.616180 668.518738,413.986786 
z"/>
</svg>
